<svg width="106" height="106" viewBox="0 0 106 106" fill="none" xmlns="http://www.w3.org/2000/svg">
<circle cx="53" cy="53" r="51.5" fill="white" stroke="black" stroke-width="3"/>
<path d="M41.52 52.959C48.8325 47.8811 56.2425 42.7056 63.555 37.6277C65.6025 36.163 75.06 28.3509 73.11 36.5536C72.72 38.3113 69.795 40.8502 68.625 42.315C67.1625 44.0727 65.6025 45.9281 64.0425 47.5882C62.8725 48.8576 64.335 50.6154 65.7975 49.9318C69.6975 47.9788 73.5975 46.0258 77.6925 44.561C80.325 43.5845 91.7325 39.1902 88.6125 46.7093C87.4425 49.5412 83.5425 52.4708 81.495 54.8144C78.8625 57.7439 76.23 60.5758 73.5 63.4077C62.775 74.4423 51.5625 84.7934 39.765 94.5585C38.3025 95.7303 40.35 97.781 41.8125 96.6092C58.29 83.0356 73.5975 68.1926 87.6375 52.1778C90.27 49.1506 96.9975 41.5338 89.5875 39.4831C86.175 38.6043 81.69 40.1667 78.57 41.1432C73.5975 42.7056 68.9175 45.0492 64.335 47.3929C64.92 48.1741 65.505 48.9553 66.09 49.7365C68.1375 47.3929 84.9075 30.0109 73.11 29.425C68.1375 29.2297 62.8725 34.6982 59.1675 37.2371C52.83 41.6314 46.4925 46.0258 40.155 50.5177C38.4975 51.4942 39.96 54.0332 41.52 52.959Z" fill="black"/>
<path d="M58.875 39.2878C55.2675 49.6388 55.8525 60.4781 60.24 70.4386C61.02 72.1963 63.555 70.6339 62.775 68.9738C58.68 59.6969 58.3875 49.6388 61.7025 40.069C62.2875 38.2136 59.46 37.53 58.875 39.2878Z" fill="black"/>
<path d="M46.0048 39.2875C49.0273 33.9167 49.4173 26.9834 44.8348 22.2962C40.5448 17.9018 33.9148 16.9253 28.3573 19.269C14.3173 25.128 13.1473 44.0724 16.7548 56.8648C19.8748 68.0947 33.0373 83.3283 46.1023 76.1021C57.8023 69.7547 54.1948 52.6657 41.4223 50.6151C39.5698 50.3221 38.7898 53.154 40.6423 53.447C45.8098 54.3258 50.2948 58.3295 50.4898 63.8957C50.6848 70.3407 44.7373 75.1256 38.5948 74.735C28.1623 73.9538 21.3373 63.798 19.0948 54.4235C16.9498 45.2442 17.0473 33.0378 23.9698 25.8116C27.8698 21.8079 33.4273 19.5619 38.7898 21.7102C45.5173 24.4445 46.8823 31.6707 43.4698 37.7251C42.5923 39.3852 45.1273 40.8499 46.0048 39.2875Z" fill="black"/>
</svg>
