<svg width="57" height="57" viewBox="0 0 57 57" fill="none" xmlns="http://www.w3.org/2000/svg">
<g clip-path="url(#clip0)">
<path d="M28.5098 0C44.242 0 57.0196 12.758 57.0196 28.5098C57.0196 44.2616 44.2616 57.0196 28.5098 57.0196C12.758 57.0196 0 44.242 0 28.5098C0 12.7775 12.758 0 28.5098 0Z" fill="#99C5C4"/>
<path d="M16.0655 39.1546H21.4074V21.3678H16.0655V39.1546ZM36.8461 20.7612C34.2632 20.7612 31.9347 21.7005 30.291 23.7942V21.3091H24.9296V39.1546H30.291V29.5079C30.291 27.4729 32.1695 25.477 34.498 25.477C36.8266 25.477 37.4136 27.4729 37.4136 29.4492V39.1546H42.7555V29.0578C42.7751 22.0527 39.4486 20.7612 36.8461 20.7612ZM18.7071 19.5872C20.1747 19.5872 21.3879 18.3936 21.3879 16.9064C21.3879 15.4193 20.1942 14.2257 18.7071 14.2257C17.22 14.2257 16.0264 15.4193 16.0264 16.9064C16.0264 18.3936 17.2395 19.5872 18.7071 19.5872Z" fill="white"/>
</g>
<defs>
<clipPath id="clip0">
<rect width="57" height="57" fill="white"/>
</clipPath>
</defs>
</svg>
