<svg width="436" height="106" viewBox="0 0 436 106" fill="none" xmlns="http://www.w3.org/2000/svg">
<circle cx="53" cy="53" r="51.5" fill="white" stroke="black" stroke-width="3"/>
<path d="M41.52 52.959C48.8325 47.8811 56.2425 42.7056 63.555 37.6277C65.6025 36.163 75.06 28.3509 73.11 36.5536C72.72 38.3113 69.795 40.8502 68.625 42.315C67.1625 44.0727 65.6025 45.9281 64.0425 47.5882C62.8725 48.8576 64.335 50.6154 65.7975 49.9318C69.6975 47.9788 73.5975 46.0258 77.6925 44.561C80.325 43.5845 91.7325 39.1902 88.6125 46.7093C87.4425 49.5412 83.5425 52.4708 81.495 54.8144C78.8625 57.7439 76.23 60.5758 73.5 63.4077C62.775 74.4423 51.5625 84.7934 39.765 94.5585C38.3025 95.7303 40.35 97.781 41.8125 96.6092C58.29 83.0356 73.5975 68.1926 87.6375 52.1778C90.27 49.1506 96.9975 41.5338 89.5875 39.4831C86.175 38.6043 81.69 40.1667 78.57 41.1432C73.5975 42.7056 68.9175 45.0492 64.335 47.3929C64.92 48.1741 65.505 48.9553 66.09 49.7365C68.1375 47.3929 84.9075 30.0109 73.11 29.425C68.1375 29.2297 62.8725 34.6982 59.1675 37.2371C52.83 41.6314 46.4925 46.0258 40.155 50.5177C38.4975 51.4942 39.96 54.0332 41.52 52.959Z" fill="black"/>
<path d="M58.875 39.2878C55.2675 49.6388 55.8525 60.4781 60.24 70.4386C61.02 72.1963 63.555 70.6339 62.775 68.9738C58.68 59.6969 58.3875 49.6388 61.7025 40.069C62.2875 38.2136 59.46 37.53 58.875 39.2878Z" fill="black"/>
<path d="M46.0048 39.2875C49.0273 33.9167 49.4173 26.9834 44.8348 22.2962C40.5448 17.9018 33.9148 16.9253 28.3573 19.269C14.3173 25.128 13.1473 44.0724 16.7548 56.8648C19.8748 68.0947 33.0373 83.3283 46.1023 76.1021C57.8023 69.7547 54.1948 52.6657 41.4223 50.6151C39.5698 50.3221 38.7898 53.154 40.6423 53.447C45.8098 54.3258 50.2948 58.3295 50.4898 63.8957C50.6848 70.3407 44.7373 75.1256 38.5948 74.735C28.1623 73.9538 21.3373 63.798 19.0948 54.4235C16.9498 45.2442 17.0473 33.0378 23.9698 25.8116C27.8698 21.8079 33.4273 19.5619 38.7898 21.7102C45.5173 24.4445 46.8823 31.6707 43.4698 37.7251C42.5923 39.3852 45.1273 40.8499 46.0048 39.2875Z" fill="black"/>
<path d="M156.688 53.824H138.4V60.784H147.52C147.52 65.632 143.248 68.416 138.928 68.416C133.36 68.416 128.848 62.944 128.848 56.224C128.848 49.36 133.36 43.84 138.928 43.84C142.432 43.84 145.456 45.232 147.76 48.928L153.664 42.448C150.208 38.272 145.36 35.68 138.4 35.68C127.264 35.68 119.104 44.848 119.104 56.224C119.104 67.552 127.744 76.72 138.4 76.72C146.176 76.72 154.528 72.448 156.688 62.416V53.824ZM160.677 76H169.173V63.04C169.173 62.416 169.797 58.048 174.213 58.048C177.045 58.048 178.629 59.392 178.629 59.392L182.181 52.192C182.181 52.192 179.973 50.656 176.805 50.656C171.957 50.656 169.269 54.928 169.269 54.928H169.173V51.376H160.677V76ZM209.214 64.864C209.262 64.576 209.262 64.048 209.262 63.712C209.262 55.072 203.55 50.656 196.062 50.656C188.622 50.656 182.526 56.512 182.526 63.712C182.526 70.864 188.622 76.72 196.062 76.72C201.534 76.72 206.046 74.944 208.83 70.288L202.686 67.216C200.622 69.424 199.422 69.952 196.686 69.952C194.526 69.952 191.358 68.656 191.358 64.864H209.214ZM191.598 60.16C191.742 57.904 193.374 56.176 196.302 56.176C198.798 56.176 200.574 57.568 200.958 60.16H191.598ZM212.12 82.048C214.712 88.048 220.616 89.2 225.752 89.2C234.152 89.2 240.248 84.928 240.248 76.672V51.376H231.752V53.584H231.608C229.592 51.712 226.952 50.656 223.688 50.656C216.488 50.656 211.448 56.512 211.448 63.712C211.448 70.912 216.488 76.72 223.688 76.72C227.048 76.72 229.928 76.24 231.752 74.224V76.048C231.752 80.416 228.104 81.808 225.752 81.808C222.056 81.808 219.992 80.128 219.08 78.64L212.12 82.048ZM220.472 63.712C220.472 60.304 223.016 57.904 226.232 57.904C229.4 57.904 231.944 60.304 231.944 63.712C231.944 67.072 229.544 69.472 226.232 69.472C222.776 69.472 220.472 67.072 220.472 63.712ZM243.979 63.712C243.979 71.296 249.931 76.72 258.811 76.72C267.307 76.72 273.499 71.296 273.499 63.712C273.499 56.032 266.971 50.656 258.811 50.656C250.507 50.656 243.979 56.032 243.979 63.712ZM253.003 63.712C253.003 60.304 255.547 57.904 258.763 57.904C261.931 57.904 264.475 60.304 264.475 63.712C264.475 67.072 262.075 69.472 258.763 69.472C255.307 69.472 253.003 67.072 253.003 63.712ZM277.396 76H285.892V63.04C285.892 62.416 286.516 58.048 290.932 58.048C293.764 58.048 295.348 59.392 295.348 59.392L298.9 52.192C298.9 52.192 296.692 50.656 293.524 50.656C288.676 50.656 285.988 54.928 285.988 54.928H285.892V51.376H277.396V76ZM314.427 36.4V76H329.451C337.659 76 342.411 71.488 342.411 64.96C342.411 58.576 338.907 55.84 333.963 54.976C337.323 53.248 338.907 50.128 338.907 46.48C338.907 38.944 333.531 36.4 326.715 36.4H314.427ZM323.451 51.904V43.36H324.171C328.107 43.36 330.171 44.56 330.171 47.392C330.171 50.704 328.059 51.904 324.171 51.904H323.451ZM323.451 69.04V59.68H326.283C330.555 59.68 332.907 60.976 332.907 64.624C332.907 67.744 330.555 69.04 326.283 69.04H323.451ZM344.62 63.712C344.62 71.296 350.572 76.72 359.452 76.72C367.948 76.72 374.14 71.296 374.14 63.712C374.14 56.032 367.612 50.656 359.452 50.656C351.148 50.656 344.62 56.032 344.62 63.712ZM353.644 63.712C353.644 60.304 356.188 57.904 359.404 57.904C362.572 57.904 365.116 60.304 365.116 63.712C365.116 67.072 362.716 69.472 359.404 69.472C355.948 69.472 353.644 67.072 353.644 63.712ZM378.036 76H386.532V34.72H378.036V76ZM393.726 51.376H390.174V57.856H393.726V67.312C393.726 71.68 395.358 76.72 402.126 76.72C405.63 76.72 408.366 75.184 408.366 75.184L406.254 68.32C406.254 68.32 405.246 69.088 404.142 69.088C402.798 69.088 402.222 67.984 402.222 65.68V57.856H407.406V51.376H402.222V42.208H393.726V51.376ZM435.501 51.376H411.069V57.856H421.245L409.053 76H434.541V69.52H423.309L435.501 51.376Z" fill="black"/>
</svg>
