<svg id="Layer_1" data-name="Layer 1" xmlns="http://www.w3.org/2000/svg" viewBox="0 0 432.5 106"><defs><style>.cls-1{fill:#fff;stroke:#000;stroke-width:3px;}.cls-2{font-size:48px;font-family:LeagueSpartan-Bold, League Spartan;font-weight:700;}.cls-3{letter-spacing:-0.01em;}.cls-4{letter-spacing:0em;}.cls-5{letter-spacing:0em;}.cls-6{letter-spacing:0em;}.cls-7{letter-spacing:0.01em;}</style></defs><title>logo_only</title><circle class="cls-1" cx="53" cy="53" r="51.5"/><path d="M41.52,53c7.31-5.08,14.72-10.25,22-15.33,2-1.47,11.5-9.28,9.55-1.08-.39,1.76-3.32,4.3-4.48,5.76-1.47,1.76-3,3.62-4.59,5.28a1.49,1.49,0,0,0,1.76,2.34,110.12,110.12,0,0,1,11.89-5.37c2.63-1,14-5.37,10.92,2.15-1.17,2.83-5.07,5.76-7.11,8.1-2.64,2.93-5.27,5.77-8,8.6A424.16,424.16,0,0,1,39.76,94.56c-1.46,1.17.59,3.22,2.05,2A394.28,394.28,0,0,0,87.64,52.18c2.63-3,9.36-10.65,2-12.7-3.41-.88-7.9.69-11,1.66a94.14,94.14,0,0,0-14.24,6.25l1.76,2.35c2-2.35,18.82-19.73,7-20.32-5-.19-10.24,5.28-13.94,7.82-6.34,4.39-12.68,8.79-19,13.28C38.5,51.49,40,54,41.52,53Z"/><path d="M58.88,39.29a42,42,0,0,0,1.36,31.15c.78,1.76,3.32.19,2.54-1.47a39,39,0,0,1-1.08-28.9C62.29,38.21,59.46,37.53,58.88,39.29Z"/><path d="M46,39.29c3-5.37,3.42-12.31-1.17-17a14.92,14.92,0,0,0-16.47-3c-14,5.86-15.21,24.8-11.61,37.59C19.87,68.09,33,83.33,46.1,76.1c11.7-6.35,8.09-23.43-4.68-25.48-1.85-.3-2.63,2.53-.78,2.83,5.17.88,9.65,4.88,9.85,10.45.19,6.44-5.75,11.23-11.9,10.84C28.16,74,21.34,63.8,19.09,54.42,17,45.24,17.05,33,24,25.81c3.9-4,9.46-6.25,14.82-4.1,6.73,2.73,8.09,10,4.68,16C42.59,39.39,45.13,40.85,46,39.29Z"/><text class="cls-2" transform="translate(111.5 78.55)">G<tspan class="cls-3" x="39.79" y="0">r</tspan><tspan x="63.41" y="0">e</tspan><tspan class="cls-4" x="92.35" y="0">g</tspan><tspan class="cls-5" x="124.9" y="0">o</tspan><tspan x="156.53" y="0">r B</tspan><tspan class="cls-6" x="225.5" y="0">o</tspan><tspan x="257.13" y="0">l</tspan><tspan class="cls-7" x="271.39" y="0">t</tspan><tspan x="290.83" y="0">z</tspan></text></svg>