<svg width="57" height="57" viewBox="0 0 57 57" fill="none" xmlns="http://www.w3.org/2000/svg">
<path d="M57 28.5C57 44.2418 44.2418 57 28.5 57C12.7582 57 0 44.2418 0 28.5C0 12.7582 12.7582 0 28.5 0C44.2418 0 57 12.7582 57 28.5Z" fill="#99C5C4"/>
<path d="M35.8572 30.6035C34.9443 27.8092 33.9424 25.0482 32.8514 22.3207C39.3084 19.2926 45.1531 15.1066 50.1072 9.96328C49.3279 9.06152 48.493 8.21543 47.6135 7.41387C42.9822 12.2455 37.516 16.1754 31.4709 19.0365C28.7211 12.7353 25.4926 6.6457 21.7965 0.823242C20.5941 1.1127 19.4141 1.48008 18.2562 1.92539C22.0637 7.82578 25.3924 14.0156 28.1978 20.4504C27.6969 20.6508 27.2182 20.8623 26.706 21.0516C18.3008 24.1242 9.27207 25.0816 0.399219 23.857C0.209961 25.026 0.0875 26.2061 0.0429688 27.3973C2.63691 27.7646 5.25312 27.9428 7.88047 27.9539C14.716 27.9428 21.4959 26.7404 27.9195 24.3914C28.4762 24.191 29.0217 23.9461 29.5672 23.7234C30.5914 26.284 31.5377 28.8668 32.3949 31.4941C31.2705 31.8281 30.1572 32.1732 29.0551 32.574C20.6721 35.6467 13.0906 40.5896 6.90078 47.0467C7.68008 47.9484 8.51504 48.7945 9.39453 49.5849C15.217 43.4953 22.3531 38.8195 30.2797 35.9361C31.3262 35.5576 32.3838 35.2236 33.4525 34.9119C35.4342 41.625 36.8592 48.4939 37.7275 55.4408C38.8965 55.04 40.0432 54.5613 41.1453 54.0047C40.2435 47.2471 38.8297 40.5562 36.9037 34.0213C43.3607 32.5406 50.0293 32.2512 56.5865 33.1529C56.7758 31.984 56.8982 30.7928 56.9428 29.6127C49.9068 28.6553 42.7596 28.9893 35.8572 30.6035Z" fill="white"/>
</svg>
